<svg width="92" height="54" viewBox="0 0 92 54" fill="none" xmlns="http://www.w3.org/2000/svg">
<g clip-path="url(#clip0_1730_34)">
<path d="M90.1758 1.21262C89.0652 0.657216 87.1469 0.556213 84.6229 0.556213H34.7479C34.0917 0.556213 33.4354 0.556215 32.7792 0.657215C31.82 0.758215 30.7599 1.06112 29.8513 1.56612C28.9426 2.07102 28.2359 2.62641 27.5292 3.28281H27.4282C27.4282 3.33331 3.65182 27.1158 3.65182 27.1158C-0.841023 31.7612 -0.639103 34.9423 3.29842 36.0027C4.40902 36.3056 5.72152 36.2046 7.38732 36.2046H57.7671C58.9787 36.2046 60.1397 36.0026 61.1998 35.5987C62.2599 35.1948 63.7239 34.2354 64.1277 33.8314C64.5316 33.4275 68.671 29.287 68.671 29.287H11.3753L32.1734 8.48372C32.4763 8.18072 32.7287 8.02922 32.8801 7.87772C33.1325 7.72632 33.183 7.67582 33.3849 7.62532C33.5869 7.62532 33.9907 7.52431 34.7479 7.52431H80.6854L74.7287 13.4825H84.5724L88.409 9.64502C91.2864 6.76692 93.4061 2.87892 90.2263 1.21262" fill="white"/>
<path d="M1.93513 52.918C3.0457 53.4734 4.964 53.5744 7.488 53.5744H57.363C58.0193 53.5744 58.6755 53.5744 59.3318 53.4734C60.2909 53.3724 61.351 53.0695 62.2597 52.5645C63.1683 52.0596 63.875 51.5042 64.5818 50.8477H64.6827C64.6827 50.7972 88.4592 27.0148 88.4592 27.0148C92.952 22.3694 92.75 19.1883 88.8125 18.1279C87.702 17.825 86.3895 17.9259 84.7236 17.9259H34.3438C33.1322 17.9259 31.9712 18.1279 30.9111 18.5319C29.851 18.9358 28.3871 19.8952 27.9832 20.2991C27.5794 20.7031 23.4399 24.8436 23.4399 24.8436H80.8871L60.089 45.6469C59.7861 45.9499 59.5337 46.1013 59.3822 46.2528C59.1298 46.4043 59.0794 46.4548 58.8774 46.5053C58.6755 46.5053 58.2717 46.6063 57.5145 46.6063H11.4255L17.3822 40.648H7.5385L3.702 44.4856C0.82455 47.3637 -1.29564 51.2517 1.88465 52.918" fill="white"/>
</g>
<defs>
<clipPath id="clip0_1730_34">
<rect width="92" height="54" fill="white"/>
</clipPath>
</defs>
</svg>
